HIERARCHY
ROOT Hips
{
  OFFSET 3.92544 6.39728 0
  CHANNELS 6 Xposition Yposition Zposition Zrotation Xrotation Yrotation
  JOINT BN_Spine_01
  {
    OFFSET 5.06197 -0.168311 0
    CHANNELS 6 Xposition Yposition Zposition Zrotation Xrotation Yrotation
    JOINT BN_Spine_02
    {
      OFFSET 14.8952 0 0
      CHANNELS 6 Xposition Yposition Zposition Zrotation Xrotation Yrotation
      JOINT BN_Spine_03
      {
        OFFSET 14.3786 0 0
        CHANNELS 6 Xposition Yposition Zposition Zrotation Xrotation Yrotation
        JOINT BN__Neck_01
        {
          OFFSET 15.3325 0 0
          CHANNELS 6 Xposition Yposition Zposition Zrotation Xrotation Yrotation
          JOINT BN__Neck_02
          {
            OFFSET 11.0839 0 0
            CHANNELS 6 Xposition Yposition Zposition Zrotation Xrotation Yrotation
            JOINT BN__Neck_R_01
            {
              OFFSET 3.85383 1.1973 3.491
              CHANNELS 6 Xposition Yposition Zposition Zrotation Xrotation Yrotation
              End Site
              {
                OFFSET 0 0 0
              }
            }
            JOINT BN__Neck_L_01
            {
              OFFSET 3.85383 1.1973 -3.49098
              CHANNELS 6 Xposition Yposition Zposition Zrotation Xrotation Yrotation
              End Site
              {
                OFFSET 0 0 0
              }
            }
            JOINT BN_Head_01
            {
              OFFSET 9.67523 0 0
              CHANNELS 6 Xposition Yposition Zposition Zrotation Xrotation Yrotation
              JOINT BN_Mouth_01
              {
                OFFSET 1.08197 -0.588672 0
                CHANNELS 6 Xposition Yposition Zposition Zrotation Xrotation Yrotation
                JOINT BN_Tongue_01
                {
                  OFFSET 2.17792 0.065941 0
                  CHANNELS 6 Xposition Yposition Zposition Zrotation Xrotation Yrotation
                  JOINT BN_Tongue_02
                  {
                    OFFSET 3.80658 -0.000201226 0
                    CHANNELS 6 Xposition Yposition Zposition Zrotation Xrotation Yrotation
                    End Site
                    {
                      OFFSET 0 0 0
                    }
                  }
                }
              }
            }
          }
        }
      }
    }
  }
  JOINT BN_Tail_01
  {
    OFFSET 4.67587 -0.164094 0
    CHANNELS 6 Xposition Yposition Zposition Zrotation Xrotation Yrotation
    JOINT BN_Tail_02
    {
      OFFSET 13.1147 2.52724e-005 0
      CHANNELS 6 Xposition Yposition Zposition Zrotation Xrotation Yrotation
      JOINT BN_Tail_03
      {
        OFFSET 13.4995 9.10759e-005 0
        CHANNELS 6 Xposition Yposition Zposition Zrotation Xrotation Yrotation
        JOINT BN_Tail_04
        {
          OFFSET 13.2851 0 0
          CHANNELS 6 Xposition Yposition Zposition Zrotation Xrotation Yrotation
          JOINT BN_Tail_05
          {
            OFFSET 14.6528 0.000106812 0
            CHANNELS 6 Xposition Yposition Zposition Zrotation Xrotation Yrotation
            JOINT BN_Tail_06
            {
              OFFSET 13.1048 0 0
              CHANNELS 6 Xposition Yposition Zposition Zrotation Xrotation Yrotation
              JOINT BN_Tail_07
              {
                OFFSET 11.869 0.000113964 0
                CHANNELS 6 Xposition Yposition Zposition Zrotation Xrotation Yrotation
                End Site
                {
                  OFFSET 0 0 0
                }
              }
            }
          }
        }
      }
    }
  }
}
MOTION
Frames:	8
Frame Time:	0.0333333
3.92544 3.97237 0 5.37524 -5.84276e-006 1.06119e-005 5.06197 -0.168311 -1.13687e-013 8.05712 -2.57312 38.1669 14.8952 4.76837e-007 2.86102e-006 60.4342 -31.2512 -29.9225 14.3786 0 0 39.7966 1.7366 -19.1999 15.3325 0 1.77636e-015 -23.5911 -12.3223 27.3102 11.0839 -3.55272e-015 -7.45058e-008 -67.743 0.0838776 2.30986 4.53921 1.45961 3.83302 -87.314 -13.605 -72.5979 4.48717 1.45925 -3.07319 93.2245 -18.421 99.6847 9.67522 0 1.19209e-007 -40.1931 0.767002 0.753579 1.08197 -0.588652 -2.98023e-008 -0.867306 -1.87815e-008 4.41411e-009 3.18259 0.278405 2.5332e-006 2.34676 3.20737e-008 -1.64735e-008 5.10923 0.673205 2.98023e-008 19.773 1.01227e-007 -1.94123e-008 4.67587 -0.164094 -1.13687e-013 179.125 0.690853 -11.246 13.1147 -8.88178e-016 0 -5.53061 -0.888465 18.9548 13.4995 -4.44089e-016 -4.44089e-016 -2.80222 5.77867 29.3357 13.2851 -1.19209e-007 -9.53674e-007 -1.61902 -1.74751 48.3943 14.6528 4.44089e-016 -1.90735e-006 -1.68246 -1.96962 45.7249 13.1048 -2.22045e-016 3.8147e-006 1.12464 0.863626 26.0834 11.869 2.22045e-016 -3.8147e-006 -1.34861 5.924 -23.3681 
3.91123 3.97237 2.00687e-016 5.36005 -1.93869e-005 1.18809e-005 5.06197 -0.168311 -1.13687e-013 8.06597 -2.6188 38.1241 14.8952 4.76837e-007 2.86102e-006 60.4759 -31.2687 -29.923 14.3786 7.10543e-015 -1.77636e-015 40.5449 1.51452 -19.4899 15.3325 3.55272e-015 0 -23.1768 -12.0693 28.0162 11.0839 3.55272e-015 -7.45058e-008 -68.3671 -0.0615795 2.45449 4.54023 1.45868 3.82855 -87.2472 -13.8209 -72.7787 4.48767 1.45791 -3.06851 93.2582 -18.6141 99.4098 9.67522 1.42109e-014 1.19209e-007 -39.1001 2.12331 -0.158171 1.08197 -0.588652 -3.11916e-008 -0.953148 -3.11134e-008 6.7517e-009 3.16835 0.277841 2.53391e-006 2.34676 6.1819e-008 -2.25144e-008 5.09227 0.665136 3.11604e-008 19.5154 4.24149e-007 -5.85048e-008 4.67587 -0.164094 -1.13687e-013 179.135 0.681845 -11.2883 13.1147 -9.32587e-015 0 -5.48736 -0.893203 18.9515 13.4995 -2.22045e-015 1.33227e-015 -2.69243 5.81654 28.5402 13.2851 -1.19209e-007 -9.53674e-007 -1.55868 -1.75909 48.4893 14.6528 -5.9952e-015 -1.90735e-006 -1.71077 -1.94609 46.1416 13.1048 1.77636e-015 3.8147e-006 1.12415 0.836425 26.2615 11.869 -4.44089e-016 -3.8147e-006 -1.32349 5.97597 -22.7135 
3.87132 3.97237 2.73423e-016 5.31735 -2.02944e-005 2.22349e-006 5.06197 -0.168311 -1.13687e-013 8.03715 -2.66837 38.0865 14.8952 4.76837e-007 2.86102e-006 60.5826 -31.3148 -29.9263 14.3786 1.06581e-014 5.32907e-015 41.3621 1.28999 -19.78 15.3325 0 -7.10543e-015 -23.2396 -11.8909 28.9077 11.0839 -7.10544e-015 -7.45058e-008 -69.0044 -0.202453 3.08162 4.54315 1.45603 3.81596 -87.1879 -14.0125 -72.934 4.48858 1.45549 -3.06013 93.288 -18.7887 99.1666 9.67522 -2.84218e-014 1.19209e-007 -36.503 5.06506 -2.34551 1.08197 -0.588652 -3.24806e-008 -1.19124 -6.3048e-008 1.01665e-008 3.12916 0.276221 2.53465e-006 2.34676 1.16796e-007 -2.89562e-008 5.04553 0.64294 3.22404e-008 19.2842 9.97941e-007 -9.163e-008 4.67587 -0.164094 -1.13687e-013 179.153 0.670999 -11.328 13.1147 -1.06581e-014 -8.88178e-016 -5.4479 -0.897947 18.949 13.4995 -4.88498e-015 1.33227e-015 -2.53761 5.84162 27.6612 13.2851 -1.19209e-007 -9.53674e-007 -1.50085 -1.7807 48.3495 14.6528 -5.32907e-015 -1.90735e-006 -1.73179 -1.91686 46.4884 13.1048 2.44249e-015 3.8147e-006 1.11048 0.802482 26.7593 11.869 -2.88658e-015 -3.8147e-006 -1.29225 6.05701 -21.5854 
3.80637 3.97237 7.7232e-016 5.24782 -6.72824e-006 1.22488e-006 5.06197 -0.168311 -1.13687e-013 7.97436 -2.72329 38.0533 14.8952 4.76837e-007 2.86102e-006 60.7625 -31.3893 -29.9266 14.3786 -3.55272e-015 3.55271e-015 42.2652 1.05611 -20.0754 15.3325 -7.10543e-015 1.77636e-015 -23.6327 -11.7862 29.9307 11.0839 3.55272e-015 -7.45058e-008 -69.6717 -0.339573 4.13253 4.54858 1.45112 3.79257 -87.0511 -14.4917 -73.402 4.49011 1.45146 -3.04617 93.3492 -19.1749 98.5458 9.67522 1.42109e-014 1.19209e-007 -33.4475 7.96211 -4.58545 1.08197 -0.588652 -3.20499e-008 -1.57485 -1.13157e-007 1.11529e-008 3.06693 0.273673 2.53466e-006 2.34676 5.77443e-007 9.98021e-006 4.97133 0.60769 3.16218e-008 18.7473 1.43476e-006 -7.56333e-008 4.67587 -0.164094 -1.13687e-013 179.18 0.657119 -11.3655 13.1147 -2.22045e-015 0 -5.3665 -0.90139 18.9371 13.4995 4.44089e-016 1.77636e-015 -2.34345 5.86085 26.6773 13.2851 -1.19209e-007 -9.53674e-007 -1.45088 -1.8111 47.9797 14.6528 -1.82077e-014 -1.90735e-006 -1.74952 -1.88439 46.7785 13.1048 3.9968e-015 3.8147e-006 1.08514 0.765568 27.548 11.869 -3.55272e-015 -3.8147e-006 -1.25411 6.18401 -19.7359 
3.71751 3.97237 4.95914e-015 5.15271 -1.94357e-005 1.18112e-005 5.06197 -0.168311 -1.13687e-013 7.87756 -2.78671 38.0247 14.8952 4.76837e-007 2.86102e-006 61.0067 -31.4935 -29.931 14.3786 3.55272e-015 -1.77636e-015 43.2495 0.815218 -20.375 15.3325 3.55272e-015 -1.77636e-015 -24.2484 -11.7595 31.0088 11.0839 7.10544e-015 -7.45058e-008 -70.3557 -0.477961 5.53199 4.55484 1.44544 3.76556 -86.8829 -15.1082 -74.0172 4.49246 1.44515 -3.02429 93.4196 -19.662 97.7456 9.67522 0 1.19209e-007 -31.5007 9.16194 -5.53426 1.08197 -0.588652 -3.09223e-008 -2.09458 -1.49679e-007 9.65792e-009 2.98414 0.270291 2.53427e-006 2.34676 5.79954e-007 9.98321e-006 4.87267 0.560817 3.06897e-008 18.0657 1.36579e-006 -4.95783e-008 4.67587 -0.164094 -1.13687e-013 179.224 0.639222 -11.3996 13.1147 -6.21725e-015 2.22045e-016 -5.26369 -0.904199 18.9204 13.4995 -1.77636e-015 -8.88178e-016 -2.10561 5.86554 25.5892 13.2851 -1.19209e-007 -9.53674e-007 -1.4024 -1.84678 47.3843 14.6528 -1.13243e-014 -1.90735e-006 -1.76014 -1.84515 47.0065 13.1048 7.32747e-015 3.8147e-006 1.04962 0.726296 28.5975 11.869 -3.77476e-015 -3.8147e-006 -1.19446 6.35659 -17.0071 
3.60969 3.97237 6.28604e-015 5.03731 -2.62401e-005 1.23697e-005 5.06197 -0.168311 -1.13687e-013 7.75442 -2.85648 37.9982 14.8952 4.76837e-007 2.86102e-006 61.3071 -31.6221 -29.9282 14.3786 1.06581e-014 3.55271e-015 44.2778 0.574298 -20.6669 15.3325 -3.55272e-015 -8.88178e-015 -24.9668 -11.8105 32.0338 11.0839 3.55272e-015 -7.45058e-008 -71.0304 -0.619023 7.15376 4.56352 1.43756 3.72805 -86.7261 -15.7041 -74.5996 4.49505 1.4382 -3.00025 93.4799 -20.1556 96.8426 9.67522 0 1.19209e-007 -30.6205 8.9563 -5.26466 1.08197 -0.588652 -3.01257e-008 -2.71461 -1.4423e-007 7.79988e-009 2.88668 0.266284 2.53384e-006 2.34676 1.49819e-007 4.8448e-007 4.7565 0.50562 3.01652e-008 17.3355 9.16369e-007 -3.51506e-008 4.67587 -0.164094 -1.13687e-013 179.271 0.620455 -11.4318 13.1147 -1.28786e-014 1.11022e-015 -5.13173 -0.90539 18.8938 13.4995 4.44089e-016 -1.77636e-015 -1.83891 5.86524 24.4403 13.2851 -1.19209e-007 -9.53674e-007 -1.35834 -1.89048 46.5995 14.6528 -1.02141e-014 -1.90735e-006 -1.76607 -1.80356 47.1763 13.1048 1.02141e-014 3.8147e-006 1.01011 0.682344 29.8291 11.869 -7.10543e-015 -3.8147e-006 -1.14193 6.53518 -14.051 
3.48149 3.97237 6.75035e-015 4.90013 -5.93376e-006 1.05634e-005 5.06197 -0.168311 -1.13687e-013 7.59955 -2.92933 37.9777 14.8952 4.76837e-007 2.86102e-006 61.6643 -31.7735 -29.9241 14.3786 7.10543e-015 0 45.3719 0.327894 -20.9654 15.3325 -3.55272e-015 0 -25.7242 -11.9435 32.9601 11.0839 0 -7.45058e-008 -71.7084 -0.770043 8.9715 4.57349 1.42841 3.68494 -86.5606 -16.4039 -75.4609 4.49835 1.4294 -2.9697 93.5239 -20.7274 95.4553 9.67522 -2.84218e-014 1.19209e-007 -29.7817 8.4808 -4.60906 1.08197 -0.588652 -2.94594e-008 -3.43684 -9.51601e-008 5.0474e-009 2.77468 0.261682 2.53328e-006 2.34676 4.82313e-007 9.99127e-006 4.62301 0.442097 2.95981e-008 16.3411 3.63824e-007 -1.73141e-008 4.67587 -0.164094 -1.13687e-013 179.33 0.598669 -11.461 13.1147 -1.15463e-014 4.44089e-016 -4.98645 -0.907662 18.8592 13.4995 -3.10862e-015 -8.88178e-016 -1.53675 5.85145 23.1969 13.2851 -1.19209e-007 -9.53674e-007 -1.31981 -1.93971 45.6168 14.6528 -1.5099e-014 -1.90735e-006 -1.76784 -1.75847 47.2938 13.1048 1.37668e-014 3.8147e-006 0.962783 0.635185 31.2488 11.869 -6.4393e-015 -3.8147e-006 -1.10059 6.7263 -10.3487 
3.33425 3.97237 8.23184e-015 4.74255 -6.73975e-006 1.19388e-006 5.06197 -0.168311 -1.13687e-013 7.42088 -3.00699 37.9594 14.8952 4.76837e-007 2.86102e-006 62.0756 -31.9512 -29.9177 14.3786 1.42109e-014 0 46.5212 0.0772173 -21.2614 15.3325 7.10543e-015 -1.77636e-015 -26.4322 -12.1612 33.7034 11.0839 -3.55272e-015 -7.45058e-008 -72.3784 -0.930698 10.906 4.58487 1.41784 3.63567 -86.3931 -17.2184 -76.6278 4.50229 1.41889 -2.93326 93.5543 -21.3008 94.0826 9.67522 -2.13163e-014 1.19209e-007 -28.9904 7.74446 -3.60709 1.08197 -0.588652 -2.90075e-008 -4.27796 1.18117e-008 2.1369e-009 2.65138 0.2568 2.53256e-006 2.34676 8.88765e-009 7.93954e-008 4.47534 0.373452 2.89815e-008 15.3548 -2.11677e-007 5.76088e-009 4.67587 -0.164094 -1.13687e-013 179.401 0.574387 -11.4876 13.1147 -1.02141e-014 4.44089e-016 -4.8261 -0.911178 18.8156 13.4995 -1.33227e-015 -8.88178e-016 -1.20436 5.82928 21.8661 13.2851 -1.19209e-007 -9.53674e-007 -1.28605 -1.99886 44.4401 14.6528 -1.5099e-014 -1.90735e-006 -1.7653 -1.70978 47.3568 13.1048 1.95399e-014 3.8147e-006 0.910494 0.588886 32.8166 11.869 -5.99521e-015 -3.8147e-006 -1.07011 6.92397 -6.67316 
